HIERARCHY
ROOT Hips
{
 OFFSET 0.000000 0.000000 0.000000
 CHANNELS 6 Xposition Yposition Zposition Yrotation Xrotation Zrotation
 JOINT Chest
 {
  OFFSET 0.000000 9.585900 0.002600
  CHANNELS 3 Yrotation Xrotation Zrotation
  JOINT Chest2
  {
   OFFSET 0.000000 9.601200 -0.005300
   CHANNELS 3 Yrotation Xrotation Zrotation
   JOINT Chest3
   {
    OFFSET 0.000000 9.561800 0.000000
    CHANNELS 3 Yrotation Xrotation Zrotation
    JOINT Chest4
    {
     OFFSET 0.000000 9.552100 0.000000
     CHANNELS 3 Yrotation Xrotation Zrotation
     JOINT Neck
     {
      OFFSET 0.000000 14.453000 0.000000
      CHANNELS 3 Yrotation Xrotation Zrotation
      JOINT Head
      {
       OFFSET 0.000000 8.936500 -0.011300
       CHANNELS 3 Yrotation Xrotation Zrotation
       End Site
       {
        OFFSET 0.000000 17.073600 -0.006000
       }
      }
     }
     JOINT RightCollar
     {
      OFFSET -2.921100 9.558500 0.000000
      CHANNELS 3 Yrotation Xrotation Zrotation
      JOINT RightShoulder
      {
       OFFSET -13.519700 0.000000 0.000000
       CHANNELS 3 Yrotation Xrotation Zrotation
       JOINT RightElbow
       {
        OFFSET 0.000000 -29.696600 0.000000
        CHANNELS 3 Yrotation Xrotation Zrotation
        JOINT RightWrist
        {
         OFFSET 0.000000 -24.004700 0.000000
         CHANNELS 3 Yrotation Xrotation Zrotation
         End Site
         {
          OFFSET 0.000000 -17.728500 0.000000
         }
        }
       }
      }
     }
     JOINT LeftCollar
     {
      OFFSET 2.921100 9.558500 0.000000
      CHANNELS 3 Yrotation Xrotation Zrotation
      JOINT LeftShoulder
      {
       OFFSET 13.519700 0.000000 0.000000
       CHANNELS 3 Yrotation Xrotation Zrotation
       JOINT LeftElbow
       {
        OFFSET 0.000000 -29.696600 0.000000
        CHANNELS 3 Yrotation Xrotation Zrotation
        JOINT LeftWrist
        {
         OFFSET 0.000000 -24.004700 0.000000
         CHANNELS 3 Yrotation Xrotation Zrotation
         End Site
         {
          OFFSET 0.000000 -17.728500 0.000000
         }
        }
       }
      }
     }
    }
   }
  }
 }
 JOINT RightHip
 {
  OFFSET -7.771700 -0.012900 -0.001300
  CHANNELS 3 Yrotation Xrotation Zrotation
  JOINT RightKnee
  {
   OFFSET 0.000000 -40.869800 0.001200
   CHANNELS 3 Yrotation Xrotation Zrotation
   JOINT RightAnkle
   {
    OFFSET 0.000000 -39.717900 0.002100
    CHANNELS 3 Yrotation Xrotation Zrotation
    JOINT RightToe
    {
     OFFSET 0.000000 -4.965400 11.033500
     CHANNELS 3 Yrotation Xrotation Zrotation
     End Site
     {
      OFFSET 0.000000 -1.423100 5.872300
     }
    }
   }
  }
 }
 JOINT LeftHip
 {
  OFFSET 7.771700 -0.012900 -0.001300
  CHANNELS 3 Yrotation Xrotation Zrotation
  JOINT LeftKnee
  {
   OFFSET 0.000000 -40.869800 0.001200
   CHANNELS 3 Yrotation Xrotation Zrotation
   JOINT LeftAnkle
   {
    OFFSET 0.000000 -39.717900 0.002100
    CHANNELS 3 Yrotation Xrotation Zrotation
    JOINT LeftToe
    {
     OFFSET 0.000000 -4.965400 11.033500
     CHANNELS 3 Yrotation Xrotation Zrotation
     End Site
     {
      OFFSET 0.000000 -1.423100 5.872300
     }
    }
   }
  }
 }
}
MOTION
Frames: 12
Frame Time: 0.008333
-106.814491 52.346806 -40.867356 -179.537525 -26.583591 -0.138781 0.952434 23.511063 1.701452 0.105145 3.480514 0.238613 0.176976 5.611737 0.388505 0.818609 19.708904 1.488945 -3.391017 17.798975 -0.403227 -3.499739 -6.939817 0.346013 11.678099 12.818962 9.513295 70.236438 -4.104054 -64.091646 123.831365 -28.293401 -159.408854 9.124881 -3.173168 -20.493053 -14.124333 11.060146 -16.510212 -74.145884 -6.657670 64.051305 -118.679119 -39.319081 166.596576 2.994717 0.710814 9.536858 -10.010052 -54.892911 -1.186621 -73.586043 80.859361 -80.353516 -3.755413 -8.446713 6.963023 0.036967 0.407869 -0.334119 5.755249 -53.845047 -8.310884 15.477867 82.491948 20.734108 -2.639266 -7.625007 -0.519278 -0.060721 0.071292 -0.038024
-106.808124 52.340856 -40.877474 -179.583811 -26.692019 -0.107365 0.872746 23.484314 1.630802 0.100289 3.464889 0.235233 0.169075 5.588001 0.382960 0.789151 19.675410 1.468818 -3.348932 17.774685 -0.409049 -3.452924 -6.968145 0.330306 11.604153 12.804592 9.593165 69.455878 -4.049682 -63.607615 123.700371 -28.276128 -159.244910 9.160269 -3.536961 -20.542797 -14.003988 11.072448 -16.564505 -73.245318 -6.599893 63.647887 -118.180420 -39.134152 166.303509 2.894635 0.414651 9.507791 -9.933917 -54.793236 -1.219804 -74.009817 80.881662 -80.803011 -3.768841 -8.692124 7.105877 0.009485 0.466702 -0.357007 5.831339 -53.739652 -8.328083 15.565347 82.511313 20.832250 -2.654444 -7.647462 -0.507329 -0.065536 0.074671 -0.041576
-106.801501 52.334634 -40.889367 -179.615643 -26.797868 -0.065723 0.777681 23.452854 1.540328 0.096251 3.447144 0.231655 0.162473 5.560994 0.377074 0.764361 19.636932 1.448426 -3.315327 17.757014 -0.415102 -3.415248 -6.988886 0.316168 11.523412 12.797148 9.689304 68.636064 -3.972040 -63.097668 123.576333 -28.274675 -159.085762 9.203223 -3.873272 -20.659403 -13.881990 11.097326 -16.613512 -72.300084 -6.523235 63.215235 -117.626403 -38.939800 165.980220 2.774193 0.196439 9.524844 -9.863905 -54.718811 -1.241385 -74.614167 80.888089 -81.447366 -3.817140 -8.924496 7.233317 0.019067 0.497732 -0.355171 5.952645 -53.630590 -8.391024 15.724456 82.530016 21.013635 -2.682276 -7.691056 -0.479934 -0.073922 0.088770 -0.051444
-106.786892 52.326413 -40.899535 -179.688951 -26.878138 -0.034805 0.741854 23.393847 1.481490 0.093313 3.427045 0.228000 0.157682 5.530391 0.371131 0.746329 19.592741 1.429065 -3.291927 17.746280 -0.419988 -3.388876 -7.001552 0.305621 11.429262 12.801122 9.798988 67.778875 -3.876783 -62.562641 123.447874 -28.284417 -158.925270 9.257503 -4.169692 -20.844787 -13.757379 11.129785 -16.651238 -71.309663 -6.423755 62.742939 -117.040898 -38.743724 165.641085 2.656742 0.020614 9.580315 -9.803317 -54.672151 -1.202577 -75.211823 80.896890 -82.078903 -3.858311 -9.159027 7.344503 0.020226 0.523777 -0.347941 6.141896 -53.543385 -8.435734 15.802284 82.549972 21.134686 -2.744158 -7.735916 -0.444900 -0.083235 0.102305 -0.050400
-106.771690 52.317066 -40.909601 -179.721394 -26.945103 -0.008569 0.676271 23.320783 1.408587 0.091883 3.404361 0.224178 0.155238 5.495819 0.365055 0.737046 19.542181 1.410672 -3.277818 17.741385 -0.421793 -3.373206 -7.007421 0.300541 11.316482 12.821088 9.922336 66.882692 -3.767587 -62.005646 123.317022 -28.307869 -158.764749 9.325058 -4.415241 -21.101065 -13.635583 11.166856 -16.675319 -70.266613 -6.300568 62.223553 -116.448046 -38.550431 165.298789 2.565076 -0.139102 9.657809 -9.795343 -54.669298 -1.099294 -76.030599 80.865745 -82.963285 -4.015165 -9.314322 7.420760 0.140987 0.472573 -0.282112 6.286352 -53.474326 -8.486386 15.784158 82.579126 21.154728 -2.784511 -7.794982 -0.424128 -0.071078 0.131614 -0.044705
-106.748515 52.305380 -40.917223 -179.788904 -26.984213 0.001621 0.666444 23.218398 1.371690 0.091632 3.379377 0.220211 0.154635 5.457796 0.358797 0.734686 19.486021 1.392727 -3.269401 17.738502 -0.421022 -3.364279 -7.010882 0.299449 11.185893 12.856823 10.055807 65.949330 -3.644024 -61.424879 123.193997 -28.351071 -158.609532 9.403675 -4.606546 -21.422796 -13.518998 11.210152 -16.689132 -69.162291 -6.157322 61.658214 -115.880431 -38.362571 164.970612 2.505311 -0.301381 9.734208 -9.802890 -54.672835 -0.950076 -76.758313 80.840695 -83.749513 -4.114962 -9.562407 7.511318 0.200175 0.485745 -0.243342 6.404912 -53.439748 -8.480549 15.625665 82.613771 21.038107 -2.801399 -7.834369 -0.416836 -0.058957 0.144419 -0.038549
-106.728343 52.294189 -40.928058 -179.815752 -27.034996 0.024808 0.612043 23.128440 1.302074 0.092172 3.352675 0.216128 0.155405 5.417230 0.352396 0.737355 19.425629 1.375035 -3.263191 17.733674 -0.419693 -3.357955 -7.016426 0.299371 11.040465 12.906993 10.190909 64.978784 -3.509015 -60.816308 123.102569 -28.415639 -158.474785 9.494754 -4.737653 -21.803783 -13.403949 11.263820 -16.699176 -67.995174 -5.995284 61.056735 -115.377604 -38.189629 164.677874 2.480382 -0.493392 9.798326 -9.800670 -54.662067 -0.867113 -77.477080 80.805904 -84.526116 -4.218004 -9.845155 7.602725 0.268256 0.506711 -0.202350 6.527869 -53.390491 -8.512779 15.628509 82.642658 21.061489 -2.848567 -7.882499 -0.388518 -0.055110 0.164929 -0.036026
-106.706481 52.282024 -40.939436 -179.863685 -27.080576 0.058846 0.579145 23.037220 1.233520 0.093475 3.325060 0.211911 0.157487 5.375248 0.345868 0.744914 19.362686 1.357446 -3.258726 17.724359 -0.418557 -3.353381 -7.026806 0.299524 10.879203 12.967721 10.320097 63.968891 -3.369314 -60.175912 123.068715 -28.501195 -158.377673 9.600156 -4.802037 -22.232187 -13.291264 11.327695 -16.707017 -66.768118 -5.813143 60.426753 -114.963734 -38.040688 164.432724 2.491760 -0.735351 9.850232 -9.785743 -54.658712 -0.777235 -78.263477 80.753270 -85.377885 -4.287754 -10.182939 7.711444 0.301369 0.547756 -0.178045 6.668554 -53.345579 -8.533096 15.879270 82.663892 21.306031 -2.914947 -7.938454 -0.333051 -0.075235 0.186958 -0.042709
-106.685428 52.271253 -40.956202 -179.900450 -27.154642 0.102023 0.536380 22.980325 1.155460 0.095139 3.297352 0.207704 0.160101 5.332959 0.339286 0.754664 19.298972 1.339881 -3.256011 17.709815 -0.418385 -3.350305 -7.042833 0.299136 10.700678 13.034185 10.439628 62.924913 -3.226678 -59.502352 123.092824 -28.609732 -158.325538 9.720253 -4.802899 -22.680907 -13.184451 11.392883 -16.713731 -65.482626 -5.608644 59.768080 -114.645881 -37.916283 164.239987 2.535926 -1.022451 9.886210 -9.765786 -54.633301 -0.707384 -79.082177 80.697004 -86.270617 -4.389279 -10.501824 7.818932 0.359237 0.548144 -0.145512 6.803857 -53.269364 -8.569196 15.908064 82.695941 21.343509 -2.975161 -7.991850 -0.301721 -0.070670 0.204274 -0.039287
-106.664086 52.258007 -40.970795 -179.917387 -27.207632 0.142385 0.480080 22.909525 1.076720 0.096638 3.269832 0.203460 0.162456 5.290820 0.332500 0.763475 19.235175 1.321563 -3.253674 17.690113 -0.419385 -3.347291 -7.064489 0.297620 10.506739 13.101297 10.548725 61.851938 -3.084860 -58.797551 123.169638 -28.748907 -158.315267 9.850900 -4.750784 -23.122271 -13.074271 11.455395 -16.716857 -64.147500 -5.383674 59.082875 -114.421270 -37.815750 164.100915 2.609476 -1.343528 9.896599 -9.778419 -54.635587 -0.623757 -79.899556 80.648299 -87.173715 -4.508924 -10.810211 7.927951 0.425687 0.524001 -0.112778 6.891080 -53.216958 -8.613157 15.843316 82.726610 21.292684 -2.986924 -8.035356 -0.297072 -0.055433 0.215081 -0.034803
-106.637673 52.242622 -40.983890 -179.993402 -27.245084 0.186379 0.491681 22.830833 1.028022 0.097946 3.242588 0.198937 0.164454 5.249174 0.325266 0.770909 19.171727 1.301254 -3.250797 17.665506 -0.419107 -3.343972 -7.091547 0.297274 10.301178 13.168675 10.646700 60.748410 -2.954294 -58.066815 123.303118 -28.925433 -158.347493 9.969207 -4.669279 -23.524213 -12.941286 11.524590 -16.703104 -62.780203 -5.153099 58.378017 -114.286462 -37.742844 164.012657 2.705162 -1.694359 9.869996 -9.795687 -54.655533 -0.475871 -80.691765 80.604868 -88.061146 -4.607542 -11.123338 8.036524 0.467570 0.495408 -0.089238 7.033910 -53.179338 -8.611281 15.768054 82.765067 21.218046 -3.040485 -8.100046 -0.267929 -0.049254 0.244349 -0.027931
-106.607174 52.223097 -40.991258 179.841016 -27.239756 0.253191 0.594480 22.714483 1.002996 0.098914 3.215481 0.193970 0.165819 5.207735 0.317351 0.775662 19.108467 1.277691 -3.245256 17.637721 -0.416008 -3.338483 -7.122162 0.299244 10.088509 13.243016 10.733446 59.608119 -2.839898 -57.316096 123.491869 -29.136359 -158.433629 10.048690 -4.592234 -23.841006 -12.770120 11.610594 -16.666164 -61.392774 -4.927806 57.657285 -114.223287 -37.697895 163.961846 2.817404 -2.064919 9.788191 -9.787789 -54.719705 -0.267548 -81.300852 80.544134 -88.764027 -4.698466 -11.401103 8.117502 0.515558 0.458305 -0.056606 7.225682 -53.184412 -8.574368 15.669354 82.808128 21.116373 -3.097562 -8.177524 -0.242443 -0.035540 0.264479 -0.023128
